<?xml version="1.0" standalone="no"?>
<!DOCTYPE svg PUBLIC "-//W3C//DTD SVG 20010904//EN"
 "http://www.w3.org/TR/2001/REC-SVG-20010904/DTD/svg10.dtd">
<svg version="1.0" xmlns="http://www.w3.org/2000/svg"
 width="1280.000000pt" height="1280.000000pt" viewBox="0 0 1280.000000 1280.000000"
 preserveAspectRatio="xMidYMid meet">
<g transform="translate(0.000000,1280.000000) scale(0.100000,-0.100000)"
fill="#E66815" stroke="none">
<path d="M315 12781 c-166 -48 -255 -142 -301 -314 -17 -64 -17 -70 0 -134 9
-36 26 -84 38 -106 11 -22 884 -1336 1941 -2921 1275 -1911 1922 -2889 1922
-2906 0 -17 -647 -995 -1922 -2906 -1057 -1585 -1930 -2899 -1941 -2921 -12
-22 -29 -70 -38 -106 -17 -64 -17 -70 0 -134 47 -177 142 -272 319 -319 64
-17 70 -17 135 -1 47 13 1825 897 6109 3039 5553 2776 6047 3024 6093 3070 58
57 91 117 116 211 17 64 17 70 0 134 -24 93 -60 159 -116 213 -42 41 -730 387
-6091 3067 -3324 1662 -6069 3029 -6101 3037 -69 20 -87 19 -163 -3z"/>
</g>
</svg>
